<?xml version="1.0" encoding="UTF-8" standalone="no"?>
<!DOCTYPE svg PUBLIC "-//W3C//DTD SVG 1.1//EN"
 "http://www.w3.org/Graphics/SVG/1.1/DTD/svg11.dtd">
<!-- Generated by graphviz version 3.0.0 (20220226.1711)
 -->
<!-- Title: dependencies Pages: 1 -->
<svg width="458pt" height="247pt"
 viewBox="0.00 0.00 458.00 246.80" xmlns="http://www.w3.org/2000/svg" xmlns:xlink="http://www.w3.org/1999/xlink">
<g id="graph0" class="graph" transform="scale(1 1) rotate(0) translate(4 242.8)">
<title>dependencies</title>
<polygon fill="white" stroke="transparent" points="-4,4 -4,-242.8 454,-242.8 454,4 -4,4"/>
<text text-anchor="middle" x="225" y="-8.2" font-family="sans-serif" font-size="14.00">dependencies</text>
<g id="clust1" class="cluster">
<title>cluster_FoldableModule</title>
<polygon fill="none" stroke="black" stroke-dasharray="1,5" points="8,-32.8 8,-230.8 442,-230.8 442,-32.8 8,-32.8"/>
</g>
<g id="clust2" class="cluster">
<title>cluster_FoldableModule_declarations</title>
<polygon fill="none" stroke="black" points="22,-40.8 22,-92.8 430,-92.8 430,-40.8 22,-40.8"/>
</g>
<g id="clust7" class="cluster">
<title>cluster_FoldableModule_exports</title>
<polygon fill="none" stroke="black" points="16,-170.8 16,-222.8 434,-222.8 434,-170.8 16,-170.8"/>
</g>
<!-- IfSpanDirective -->
<g id="node1" class="node">
<title>IfSpanDirective</title>
<polygon fill="#ffffb3" stroke="black" points="421.91,-84.8 316.09,-84.8 316.09,-48.8 421.91,-48.8 421.91,-84.8"/>
<text text-anchor="middle" x="369" y="-62.6" font-family="Times,serif" font-size="14.00">IfSpanDirective</text>
</g>
<!-- FoldableModule -->
<g id="node4" class="node">
<title>FoldableModule</title>
<polygon fill="#8dd3c7" stroke="black" points="285.05,-149.8 282.05,-153.8 261.05,-153.8 258.05,-149.8 176.95,-149.8 176.95,-113.8 285.05,-113.8 285.05,-149.8"/>
<text text-anchor="middle" x="231" y="-127.6" font-family="Times,serif" font-size="14.00">FoldableModule</text>
</g>
<!-- IfSpanDirective&#45;&gt;FoldableModule -->
<g id="edge1" class="edge">
<title>IfSpanDirective&#45;&gt;FoldableModule</title>
<path fill="none" stroke="black" d="M386.98,-84.82C386.98,-102.17 386.98,-125.8 386.98,-125.8 386.98,-125.8 295.12,-125.8 295.12,-125.8"/>
<polygon fill="black" stroke="black" points="295.12,-122.3 285.12,-125.8 295.12,-129.3 295.12,-122.3"/>
</g>
<!-- SplitLayoutDirective -->
<g id="node2" class="node">
<title>SplitLayoutDirective</title>
<polygon fill="#ffffb3" stroke="black" points="298.19,-84.8 163.81,-84.8 163.81,-48.8 298.19,-48.8 298.19,-84.8"/>
<text text-anchor="middle" x="231" y="-62.6" font-family="Times,serif" font-size="14.00">SplitLayoutDirective</text>
</g>
<!-- SplitLayoutDirective&#45;&gt;FoldableModule -->
<g id="edge2" class="edge">
<title>SplitLayoutDirective&#45;&gt;FoldableModule</title>
<path fill="none" stroke="black" d="M231,-84.91C231,-84.91 231,-103.79 231,-103.79"/>
<polygon fill="black" stroke="black" points="227.5,-103.79 231,-113.79 234.5,-103.79 227.5,-103.79"/>
</g>
<!-- WindowDirective -->
<g id="node3" class="node">
<title>WindowDirective</title>
<polygon fill="#ffffb3" stroke="black" points="146.3,-84.8 29.7,-84.8 29.7,-48.8 146.3,-48.8 146.3,-84.8"/>
<text text-anchor="middle" x="88" y="-62.6" font-family="Times,serif" font-size="14.00">WindowDirective</text>
</g>
<!-- WindowDirective&#45;&gt;FoldableModule -->
<g id="edge3" class="edge">
<title>WindowDirective&#45;&gt;FoldableModule</title>
<path fill="none" stroke="black" d="M105.88,-84.82C105.88,-102.17 105.88,-125.8 105.88,-125.8 105.88,-125.8 166.85,-125.8 166.85,-125.8"/>
<polygon fill="black" stroke="black" points="166.85,-129.3 176.85,-125.8 166.85,-122.3 166.85,-129.3"/>
</g>
<!-- IfSpanDirective  -->
<g id="node5" class="node">
<title>IfSpanDirective </title>
<polygon fill="#fb8072" stroke="black" points="426.41,-214.8 317.59,-214.8 317.59,-178.8 426.41,-178.8 426.41,-214.8"/>
<text text-anchor="middle" x="372" y="-192.6" font-family="Times,serif" font-size="14.00">IfSpanDirective </text>
</g>
<!-- FoldableModule&#45;&gt;IfSpanDirective  -->
<g id="edge4" class="edge">
<title>FoldableModule&#45;&gt;IfSpanDirective </title>
<path fill="none" stroke="black" stroke-dasharray="5,2" d="M285.25,-137.8C317.54,-137.8 352.27,-137.8 352.27,-137.8 352.27,-137.8 352.27,-168.78 352.27,-168.78"/>
<polygon fill="black" stroke="black" points="348.77,-168.78 352.27,-178.78 355.77,-168.78 348.77,-168.78"/>
</g>
<!-- SplitLayoutDirective  -->
<g id="node6" class="node">
<title>SplitLayoutDirective </title>
<polygon fill="#fb8072" stroke="black" points="299.69,-214.8 162.31,-214.8 162.31,-178.8 299.69,-178.8 299.69,-214.8"/>
<text text-anchor="middle" x="231" y="-192.6" font-family="Times,serif" font-size="14.00">SplitLayoutDirective </text>
</g>
<!-- FoldableModule&#45;&gt;SplitLayoutDirective  -->
<g id="edge5" class="edge">
<title>FoldableModule&#45;&gt;SplitLayoutDirective </title>
<path fill="none" stroke="black" stroke-dasharray="5,2" d="M231,-149.91C231,-149.91 231,-168.79 231,-168.79"/>
<polygon fill="black" stroke="black" points="227.5,-168.79 231,-178.79 234.5,-168.79 227.5,-168.79"/>
</g>
<!-- WindowDirective  -->
<g id="node7" class="node">
<title>WindowDirective </title>
<polygon fill="#fb8072" stroke="black" points="143.8,-214.8 24.2,-214.8 24.2,-178.8 143.8,-178.8 143.8,-214.8"/>
<text text-anchor="middle" x="84" y="-192.6" font-family="Times,serif" font-size="14.00">WindowDirective </text>
</g>
<!-- FoldableModule&#45;&gt;WindowDirective  -->
<g id="edge6" class="edge">
<title>FoldableModule&#45;&gt;WindowDirective </title>
<path fill="none" stroke="black" stroke-dasharray="5,2" d="M176.68,-137.8C129.22,-137.8 67.87,-137.8 67.87,-137.8 67.87,-137.8 67.87,-168.78 67.87,-168.78"/>
<polygon fill="black" stroke="black" points="64.37,-168.78 67.87,-178.78 71.37,-168.78 64.37,-168.78"/>
</g>
</g>
</svg>
