<?xml version="1.0" encoding="UTF-8" standalone="no"?>
<!DOCTYPE svg PUBLIC "-//W3C//DTD SVG 1.1//EN"
 "http://www.w3.org/Graphics/SVG/1.1/DTD/svg11.dtd">
<!-- Generated by graphviz version 2.46.0 (20210119.1425)
 -->
<!-- Title: dependencies Pages: 1 -->
<svg width="504pt" height="284pt"
 viewBox="0.00 0.00 504.00 284.00" xmlns="http://www.w3.org/2000/svg" xmlns:xlink="http://www.w3.org/1999/xlink">
<g id="graph0" class="graph" transform="scale(1 1) rotate(0) translate(4 280)">
<title>dependencies</title>
<polygon fill="white" stroke="transparent" points="-4,4 -4,-280 500,-280 500,4 -4,4"/>
<text text-anchor="start" x="227.01" y="-42.4" font-family="sans-serif" font-weight="bold" font-size="14.00">Legend</text>
<polygon fill="#ffffb3" stroke="transparent" points="14,-10 14,-30 34,-30 34,-10 14,-10"/>
<text text-anchor="start" x="37.63" y="-15.4" font-family="sans-serif" font-size="14.00"> &#160;Declarations</text>
<polygon fill="#8dd3c7" stroke="transparent" points="127,-10 127,-30 147,-30 147,-10 127,-10"/>
<text text-anchor="start" x="150.73" y="-15.4" font-family="sans-serif" font-size="14.00"> &#160;Module</text>
<polygon fill="#80b1d3" stroke="transparent" points="213,-10 213,-30 233,-30 233,-10 213,-10"/>
<text text-anchor="start" x="236.78" y="-15.4" font-family="sans-serif" font-size="14.00"> &#160;Bootstrap</text>
<polygon fill="#fdb462" stroke="transparent" points="310,-10 310,-30 330,-30 330,-10 310,-10"/>
<text text-anchor="start" x="333.67" y="-15.4" font-family="sans-serif" font-size="14.00"> &#160;Providers</text>
<polygon fill="#fb8072" stroke="transparent" points="406,-10 406,-30 426,-30 426,-10 406,-10"/>
<text text-anchor="start" x="429.73" y="-15.4" font-family="sans-serif" font-size="14.00"> &#160;Exports</text>
<g id="clust1" class="cluster">
<title>cluster_FoldableModule</title>
<polygon fill="none" stroke="black" stroke-dasharray="1,5" points="31,-70 31,-268 465,-268 465,-70 31,-70"/>
</g>
<g id="clust7" class="cluster">
<title>cluster_FoldableModule_exports</title>
<polygon fill="none" stroke="black" points="39,-208 39,-260 457,-260 457,-208 39,-208"/>
</g>
<g id="clust2" class="cluster">
<title>cluster_FoldableModule_declarations</title>
<polygon fill="none" stroke="black" points="45,-78 45,-130 453,-130 453,-78 45,-78"/>
</g>
<!-- IfSpanDirective -->
<g id="node1" class="node">
<title>IfSpanDirective</title>
<polygon fill="#ffffb3" stroke="black" points="444.9,-122 339.1,-122 339.1,-86 444.9,-86 444.9,-122"/>
<text text-anchor="middle" x="392" y="-99.8" font-family="Times,serif" font-size="14.00">IfSpanDirective</text>
</g>
<!-- FoldableModule -->
<g id="node4" class="node">
<title>FoldableModule</title>
<polygon fill="#8dd3c7" stroke="black" points="308.04,-187 305.04,-191 284.04,-191 281.04,-187 199.96,-187 199.96,-151 308.04,-151 308.04,-187"/>
<text text-anchor="middle" x="254" y="-164.8" font-family="Times,serif" font-size="14.00">FoldableModule</text>
</g>
<!-- IfSpanDirective&#45;&gt;FoldableModule -->
<g id="edge1" class="edge">
<title>IfSpanDirective&#45;&gt;FoldableModule</title>
<path fill="none" stroke="black" d="M409.98,-122.02C409.98,-139.37 409.98,-163 409.98,-163 409.98,-163 318.12,-163 318.12,-163"/>
<polygon fill="black" stroke="black" points="318.12,-159.5 308.12,-163 318.12,-166.5 318.12,-159.5"/>
</g>
<!-- SplitLayoutDirective -->
<g id="node2" class="node">
<title>SplitLayoutDirective</title>
<polygon fill="#ffffb3" stroke="black" points="321.2,-122 186.8,-122 186.8,-86 321.2,-86 321.2,-122"/>
<text text-anchor="middle" x="254" y="-99.8" font-family="Times,serif" font-size="14.00">SplitLayoutDirective</text>
</g>
<!-- SplitLayoutDirective&#45;&gt;FoldableModule -->
<g id="edge2" class="edge">
<title>SplitLayoutDirective&#45;&gt;FoldableModule</title>
<path fill="none" stroke="black" d="M254,-122.11C254,-122.11 254,-140.99 254,-140.99"/>
<polygon fill="black" stroke="black" points="250.5,-140.99 254,-150.99 257.5,-140.99 250.5,-140.99"/>
</g>
<!-- WindowDirective -->
<g id="node3" class="node">
<title>WindowDirective</title>
<polygon fill="#ffffb3" stroke="black" points="169.29,-122 52.71,-122 52.71,-86 169.29,-86 169.29,-122"/>
<text text-anchor="middle" x="111" y="-99.8" font-family="Times,serif" font-size="14.00">WindowDirective</text>
</g>
<!-- WindowDirective&#45;&gt;FoldableModule -->
<g id="edge3" class="edge">
<title>WindowDirective&#45;&gt;FoldableModule</title>
<path fill="none" stroke="black" d="M128.88,-122.02C128.88,-139.37 128.88,-163 128.88,-163 128.88,-163 189.85,-163 189.85,-163"/>
<polygon fill="black" stroke="black" points="189.85,-166.5 199.85,-163 189.85,-159.5 189.85,-166.5"/>
</g>
<!-- IfSpanDirective  -->
<g id="node5" class="node">
<title>IfSpanDirective </title>
<polygon fill="#fb8072" stroke="black" points="449.4,-252 340.6,-252 340.6,-216 449.4,-216 449.4,-252"/>
<text text-anchor="middle" x="395" y="-229.8" font-family="Times,serif" font-size="14.00">IfSpanDirective </text>
</g>
<!-- FoldableModule&#45;&gt;IfSpanDirective  -->
<g id="edge4" class="edge">
<title>FoldableModule&#45;&gt;IfSpanDirective </title>
<path fill="none" stroke="black" stroke-dasharray="5,2" d="M308.25,-175C340.54,-175 375.27,-175 375.27,-175 375.27,-175 375.27,-205.98 375.27,-205.98"/>
<polygon fill="black" stroke="black" points="371.77,-205.98 375.27,-215.98 378.77,-205.98 371.77,-205.98"/>
</g>
<!-- SplitLayoutDirective  -->
<g id="node6" class="node">
<title>SplitLayoutDirective </title>
<polygon fill="#fb8072" stroke="black" points="322.7,-252 185.3,-252 185.3,-216 322.7,-216 322.7,-252"/>
<text text-anchor="middle" x="254" y="-229.8" font-family="Times,serif" font-size="14.00">SplitLayoutDirective </text>
</g>
<!-- FoldableModule&#45;&gt;SplitLayoutDirective  -->
<g id="edge5" class="edge">
<title>FoldableModule&#45;&gt;SplitLayoutDirective </title>
<path fill="none" stroke="black" stroke-dasharray="5,2" d="M254,-187.11C254,-187.11 254,-205.99 254,-205.99"/>
<polygon fill="black" stroke="black" points="250.5,-205.99 254,-215.99 257.5,-205.99 250.5,-205.99"/>
</g>
<!-- WindowDirective  -->
<g id="node7" class="node">
<title>WindowDirective </title>
<polygon fill="#fb8072" stroke="black" points="166.79,-252 47.21,-252 47.21,-216 166.79,-216 166.79,-252"/>
<text text-anchor="middle" x="107" y="-229.8" font-family="Times,serif" font-size="14.00">WindowDirective </text>
</g>
<!-- FoldableModule&#45;&gt;WindowDirective  -->
<g id="edge6" class="edge">
<title>FoldableModule&#45;&gt;WindowDirective </title>
<path fill="none" stroke="black" stroke-dasharray="5,2" d="M199.68,-175C152.22,-175 90.87,-175 90.87,-175 90.87,-175 90.87,-205.98 90.87,-205.98"/>
<polygon fill="black" stroke="black" points="87.37,-205.98 90.87,-215.98 94.37,-205.98 87.37,-205.98"/>
</g>
</g>
</svg>
